<svg width="440" height="153" viewBox="0 0 440 153" fill="none" xmlns="http://www.w3.org/2000/svg">
<path d="M322.087 91.1399L270.228 39.96H248.609V117.423H270.228V66.1231L322.034 117.423H343.799V39.96H322.087V91.1399Z" fill="white"/>
<path d="M393.379 75.4394L437.215 39.96H408.76L375.44 68.1223V39.96H353.808V117.423H375.52V83.6096L410.693 117.423H438.855L393.379 75.4394Z" fill="white"/>
<path d="M91.7375 82.9298C94.723 85.822 96.2424 89.9537 96.2424 95.325V95.7382C96.2424 101.451 94.7052 105.894 91.6308 109.066C88.1031 112.445 83.6652 114.719 78.8625 115.61C72.0973 116.964 65.2093 117.607 58.3105 117.53H53.9123L0 117.423V39.96H63.122C71.2166 40.031 77.6719 41.706 82.4878 44.9847C84.791 46.4849 86.666 48.5567 87.9297 50.9977C89.1935 53.4388 89.8028 56.1658 89.6982 58.9126V59.2857C89.8664 63.1794 88.8836 67.0363 86.8727 70.3747C84.8157 73.3671 81.8401 75.6082 78.396 76.7589C84.287 77.9851 88.7342 80.0421 91.7375 82.9298ZM66.7206 56.7534C65.4329 55.5609 63.7991 54.8093 62.0557 54.6076C59.3269 54.2857 56.5796 54.1477 53.8323 54.1944H20.6586V70.5213L45.7821 70.7346H53.7789C56.5416 70.7783 59.3047 70.6715 62.0557 70.4147C63.7422 70.2299 65.3208 69.4945 66.5473 68.3222C67.8135 67.1227 68.4399 65.1368 68.4399 62.3645C68.5351 61.3572 68.4261 60.341 68.1192 59.3768C67.8123 58.4126 67.314 57.5203 66.6539 56.7534H66.7206ZM66.8272 101.549C68.7328 101.329 70.5057 100.463 71.8519 99.0968C73.1047 97.7729 73.7312 95.6449 73.7312 92.7127C73.7312 89.7672 73.1047 87.7812 71.8519 86.4751C70.4946 85.1414 68.7211 84.3134 66.8272 84.1294C63.6619 83.8003 60.4795 83.6623 57.2976 83.7162H20.6586V101.816C35.7638 101.816 46.5463 101.891 53.006 102.042H57.2976C60.4813 102.095 63.6649 101.935 66.8272 101.563V101.549Z" fill="white"/>
<path d="M125.751 39.96V100.243H176.824V117.41H104.079V39.96H125.751Z" fill="white"/>
<path d="M8.71615 145.784C10.8353 146.144 11.8882 147.117 11.8882 148.743C11.8882 150.782 10.209 152.008 6.45043 152.008C3.45161 152.008 1.43901 151.209 0.399414 149.569L2.8118 148.943C3.17391 149.36 3.63099 149.685 4.14461 149.889C4.87624 150.203 5.66782 150.353 6.46369 150.329C7.13499 150.322 7.80262 150.228 8.44965 150.049C9.15604 149.862 9.63579 149.436 9.63579 148.849C9.63579 148.263 9.03606 147.797 7.83653 147.61L3.9314 146.983C1.99882 146.677 1.05248 145.651 1.05248 144.011C1.05248 142.372 2.90509 141.146 5.97056 141.146C7.27017 141.082 8.56668 141.324 9.75578 141.852C10.5359 142.206 11.1875 142.793 11.6217 143.532L9.27599 144.118C8.91294 143.633 8.43278 143.247 7.88037 142.998C7.32797 142.748 6.72137 142.643 6.11723 142.692C4.38457 142.692 3.37164 143.198 3.37164 144.025C3.37164 144.851 3.94475 144.998 5.03766 145.184L8.70289 145.811L8.71615 145.784Z" fill="white"/>
<path d="M19.2987 143.225V151.728H16.9929V143.225H12.8745V141.466H23.3904V143.225H19.2987Z" fill="white"/>
<path d="M34.0134 146.437C33.4955 146.95 32.8367 147.298 32.1207 147.437L35.013 151.728H32.3474L29.6817 147.49H27.0161V151.728H24.7236V141.479H30.9612C31.9477 141.436 32.9184 141.737 33.7068 142.332C34.0469 142.576 34.3229 142.898 34.5109 143.272C34.6989 143.646 34.7934 144.059 34.7863 144.478C34.7985 145.211 34.5208 145.92 34.0134 146.45V146.437ZM30.3215 143.158H27.0028V145.824H30.3215C31.6543 145.824 32.4006 145.371 32.4006 144.491C32.4006 143.611 31.6543 143.158 30.3215 143.158Z" fill="white"/>
<path d="M40.637 141.466H43.0228L48.1274 151.715H45.5818L44.4223 149.316H39.091L37.9581 151.715H35.6523L40.6904 141.466H40.637ZM39.9174 147.61H43.6492L41.7832 143.612L39.9174 147.61Z" fill="white"/>
<path d="M54.9515 143.225V151.728H52.6725V143.225H48.5674V141.466H59.0699V143.225H54.9515Z" fill="white"/>
<path d="M60.376 151.715V141.466H70.1855V143.185H62.6685V145.571H69.4258V147.277H62.6685V149.942H70.572V151.742L60.376 151.715ZM64.2944 140.719L65.494 138.96H68.1596L66.227 140.719H64.2944Z" fill="white"/>
<path d="M81.7276 144.318C81.286 143.797 80.7273 143.387 80.0973 143.123C79.4672 142.859 78.7836 142.748 78.1024 142.799C77.0417 142.758 76.0014 143.098 75.1702 143.758C74.4377 144.495 74.0266 145.492 74.0266 146.53C74.0266 147.569 74.4377 148.566 75.1702 149.303C75.9831 149.992 77.0239 150.353 78.0891 150.316C79.09 150.375 80.0788 150.072 80.8746 149.463C81.1732 149.263 81.4269 149.004 81.6196 148.701C81.8124 148.398 81.94 148.058 81.9942 147.703H78.5422V146.117H84.0868V151.742H82.0076V150.516C81.4881 151.016 80.8737 151.406 80.2007 151.665C79.5277 151.924 78.8097 152.045 78.0891 152.022C76.5151 152.023 74.9758 151.559 73.6642 150.689C72.6126 149.879 71.9107 148.697 71.7025 147.386C71.4943 146.075 71.7956 144.734 72.5446 143.638C73.1448 142.809 73.9673 142.167 74.917 141.786C75.9397 141.365 77.0369 141.157 78.1424 141.173C79.5333 141.134 80.9106 141.455 82.1408 142.106C82.9056 142.526 83.5697 143.108 84.0868 143.812L81.7143 144.305L81.7276 144.318Z" fill="white"/>
<path d="M86.0996 151.715V141.466H88.3921V151.715H86.0996Z" fill="white"/>
<path d="M90.2979 151.715V141.466H100.107V143.185H92.5902V145.571H99.3476V147.277H92.5902V149.943H100.494V151.742L90.2979 151.715Z" fill="white"/>
<path d="M116.061 151.715L114.928 150.715C113.777 151.569 112.361 151.989 110.93 151.902C109.773 151.943 108.627 151.671 107.611 151.115C107.206 150.896 106.868 150.57 106.633 150.173C106.398 149.777 106.276 149.324 106.278 148.863C106.278 147.53 107.398 146.477 109.224 145.837C108.59 145.297 108.177 144.543 108.064 143.718C108.07 143.382 108.16 143.052 108.325 142.759C108.49 142.465 108.726 142.218 109.011 142.039C109.752 141.563 110.623 141.33 111.503 141.372C112.326 141.348 113.135 141.591 113.809 142.065C114.093 142.246 114.328 142.493 114.493 142.786C114.658 143.079 114.748 143.408 114.755 143.745C114.755 144.678 113.889 145.664 112.436 146.237L114.702 148.183C114.893 147.709 114.988 147.201 114.982 146.69H117.194C117.107 147.686 116.752 148.639 116.168 149.449L118.833 151.715H116.035H116.061ZM110.597 146.983C109.264 147.49 108.531 147.996 108.531 148.823C108.537 149.056 108.609 149.282 108.738 149.476C108.868 149.669 109.05 149.822 109.264 149.916C109.83 150.198 110.457 150.336 111.09 150.315C111.981 150.311 112.85 150.037 113.582 149.529L110.583 146.983H110.597ZM111.223 145.144C112.183 144.824 112.676 144.358 112.676 143.811C112.676 143.265 112.169 142.985 111.49 142.985C110.81 142.985 110.29 143.318 110.29 143.731C110.327 144.03 110.429 144.317 110.588 144.572C110.746 144.827 110.959 145.045 111.21 145.211L111.223 145.144Z" fill="white"/>
<path d="M137.079 148.956C136.066 150.795 134.067 152.008 130.962 152.008C129.287 152.07 127.641 151.557 126.297 150.556C125.689 150.088 125.202 149.48 124.88 148.784C124.557 148.088 124.408 147.324 124.444 146.557C124.422 145.869 124.546 145.185 124.808 144.548C125.07 143.912 125.464 143.338 125.964 142.865C126.433 142.459 126.958 142.123 127.523 141.866C128.591 141.368 129.757 141.118 130.935 141.133C132.216 141.104 133.485 141.378 134.64 141.932C135.618 142.378 136.426 143.125 136.946 144.065L134.694 144.758C134.327 144.098 133.777 143.559 133.109 143.206C132.442 142.854 131.687 142.703 130.935 142.772C130.388 142.735 129.839 142.807 129.32 142.983C128.801 143.159 128.321 143.436 127.91 143.798C127.543 144.154 127.257 144.585 127.07 145.06C126.884 145.536 126.802 146.047 126.83 146.557C126.815 147.056 126.907 147.552 127.1 148.012C127.293 148.472 127.583 148.885 127.95 149.223C128.765 149.927 129.819 150.294 130.895 150.249C131.654 150.312 132.415 150.162 133.093 149.816C133.771 149.47 134.34 148.941 134.734 148.29L137.039 148.876L137.079 148.956Z" fill="white"/>
<path d="M141.292 141.879C142.357 141.406 143.511 141.165 144.677 141.172C145.876 141.149 147.065 141.395 148.155 141.892C148.728 142.138 149.262 142.466 149.742 142.865C150.253 143.334 150.658 143.908 150.927 144.547C151.196 145.187 151.324 145.877 151.301 146.57C151.301 150.569 147.662 152.008 144.637 152.008C141.611 152.008 138.106 150.502 138.106 146.597C138.073 145.584 138.356 144.587 138.914 143.742C139.473 142.896 140.28 142.246 141.225 141.879H141.292ZM141.705 149.329C142.536 150.032 143.603 150.394 144.69 150.342C145.796 150.398 146.884 150.052 147.756 149.369C148.146 149.028 148.453 148.602 148.654 148.124C148.855 147.646 148.944 147.128 148.915 146.61C148.943 146.095 148.855 145.58 148.659 145.103C148.463 144.626 148.164 144.199 147.782 143.851C146.927 143.125 145.824 142.757 144.704 142.825C144.147 142.787 143.589 142.861 143.062 143.045C142.535 143.228 142.051 143.516 141.638 143.891C141.296 144.244 141.026 144.662 140.845 145.119C140.665 145.577 140.576 146.065 140.585 146.557C140.564 147.067 140.655 147.576 140.851 148.048C141.046 148.52 141.342 148.943 141.718 149.289L141.705 149.329Z" fill="white"/>
<path d="M163.696 151.715V149.049C163.696 147.064 163.696 145.571 163.696 144.598C163.443 145.224 163.029 146.131 162.443 147.263L160.257 151.648H158.538L156.565 147.783C155.886 146.45 155.379 145.384 155.059 144.584C155.059 145.917 155.059 147.317 155.059 148.969V151.635H152.793V141.386H155.459L157.845 145.917C158.423 146.959 158.935 148.036 159.378 149.143C159.839 148.001 160.369 146.889 160.964 145.811L163.243 141.386H165.908V151.635H163.643L163.696 151.715Z" fill="white"/>
<path d="M178.73 151.715V149.049C178.73 147.064 178.73 145.571 178.73 144.598C178.477 145.224 178.063 146.131 177.477 147.263L175.291 151.648H173.545L171.573 147.783C170.906 146.45 170.386 145.384 170.066 144.584C170.066 145.917 170.066 147.317 170.066 148.969V151.635H167.801V141.386H170.466L172.852 145.917C173.43 146.959 173.942 148.036 174.385 149.143C174.847 148.001 175.376 146.889 175.971 145.811L178.25 141.386H180.916V151.635H178.637L178.73 151.715Z" fill="white"/>
<path d="M188.433 151.968C184.781 151.968 182.968 150.636 182.968 148.09V141.426H185.207V147.93C185.207 149.409 186.46 150.356 188.446 150.356C190.432 150.356 191.765 149.476 191.765 147.97V141.426H194.031V148.023C194.031 150.795 192.138 151.968 188.433 151.968Z" fill="white"/>
<path d="M204.92 151.715L200.828 147.317C199.415 145.797 198.562 144.838 198.255 144.438C198.255 145.224 198.349 146.864 198.349 149.303V151.715H196.083V141.466H198.176L202.281 145.904C203.613 147.397 204.506 148.33 204.826 148.703C204.826 147.69 204.733 146.237 204.733 144.305V141.452H207.012V151.702H204.92V151.715Z" fill="white"/>
<path d="M208.918 151.715V141.466H211.21V151.715H208.918Z" fill="white"/>
<path d="M225.298 148.956C224.285 150.795 222.3 152.008 219.194 152.008C217.515 152.067 215.866 151.555 214.516 150.556C213.912 150.085 213.429 149.476 213.109 148.78C212.789 148.085 212.641 147.322 212.677 146.557C212.654 145.869 212.778 145.185 213.04 144.548C213.302 143.912 213.696 143.338 214.196 142.865C214.661 142.453 215.187 142.116 215.755 141.866C216.823 141.368 217.989 141.118 219.167 141.133C220.448 141.104 221.717 141.378 222.873 141.932C223.849 142.374 224.654 143.123 225.165 144.065L222.926 144.758C222.561 144.097 222.011 143.557 221.343 143.204C220.675 142.851 219.919 142.701 219.167 142.772C218.62 142.735 218.071 142.807 217.552 142.983C217.033 143.159 216.554 143.436 216.142 143.798C215.77 144.151 215.48 144.581 215.292 145.057C215.103 145.534 215.02 146.045 215.049 146.557C215.033 147.057 215.125 147.555 215.321 148.015C215.517 148.475 215.811 148.888 216.182 149.223C216.998 149.927 218.051 150.294 219.127 150.249C219.886 150.312 220.647 150.162 221.325 149.816C222.004 149.47 222.572 148.941 222.966 148.29L225.258 148.876L225.298 148.956Z" fill="white"/>
<path d="M230.856 141.466H233.229L238.333 151.715H235.801L234.628 149.316H229.297L228.164 151.715H225.792L230.83 141.466H230.856ZM230.136 147.61H233.802L231.949 143.612L230.136 147.61Z" fill="white"/>
<path d="M245.157 143.225V151.728H242.891V143.225H238.773V141.466H249.276V143.225H245.157Z" fill="white"/>
<path d="M250.595 151.715V141.466H252.901V151.715H250.595Z" fill="white"/>
<path d="M257.539 141.879C258.609 141.405 259.767 141.164 260.938 141.172C262.132 141.151 263.316 141.396 264.403 141.892C264.981 142.135 265.52 142.463 266.002 142.865C266.512 143.334 266.915 143.909 267.181 144.548C267.448 145.188 267.573 145.878 267.548 146.57C267.548 150.569 263.91 152.008 260.884 152.008C257.859 152.008 254.34 150.502 254.34 146.597C254.309 145.585 254.593 144.588 255.151 143.743C255.709 142.898 256.516 142.247 257.459 141.879H257.539ZM257.952 149.329C258.789 150.032 259.859 150.394 260.951 150.342C262.052 150.398 263.137 150.052 264.003 149.369C264.397 149.03 264.708 148.605 264.911 148.127C265.115 147.648 265.205 147.129 265.176 146.61C265.204 146.094 265.115 145.578 264.917 145.1C264.718 144.623 264.415 144.196 264.03 143.851C263.179 143.127 262.08 142.759 260.964 142.825C260.406 142.786 259.845 142.86 259.316 143.043C258.787 143.226 258.3 143.515 257.885 143.891C257.545 144.245 257.277 144.663 257.099 145.12C256.921 145.578 256.835 146.066 256.846 146.557C256.823 147.066 256.912 147.575 257.105 148.046C257.298 148.518 257.592 148.942 257.965 149.289L257.952 149.329Z" fill="white"/>
<path d="M277.958 151.715L273.866 147.317C272.453 145.797 271.6 144.838 271.294 144.438C271.294 145.224 271.387 146.864 271.387 149.303V151.715H269.121V141.466H271.214L275.305 145.904C276.691 147.397 277.544 148.33 277.864 148.703C277.864 147.69 277.771 146.237 277.771 144.305V141.452H280.05V151.702H277.958V151.715Z" fill="white"/>
<path d="M17.5678 12.4527L22.5648 13.6896C20.9256 17.0013 17.2771 18.9032 11.8307 18.9032C9.08034 18.9489 6.37574 18.1913 4.0446 16.722C2.87676 15.9283 1.92822 14.8494 1.2878 13.5863C0.647375 12.3232 0.335986 10.9172 0.38285 9.50005C0.318345 7.97093 0.678776 6.45398 1.42367 5.11953C2.16856 3.78508 3.26843 2.68596 4.59979 1.94558C6.825 0.722808 9.32168 0.0868076 11.8571 0.0968625C14.1121 0.0465027 16.3478 0.52461 18.3874 1.49338C20.0797 2.19035 21.4807 3.45424 22.3532 5.07111L17.4753 6.56072C16.8084 5.36254 15.7679 4.41866 14.5146 3.87488C13.2613 3.3311 11.8649 3.21769 10.5411 3.55218C9.2173 3.88667 8.0398 4.65043 7.19054 5.72548C6.34128 6.80053 5.86749 8.12703 5.8424 9.50005C5.80115 10.308 5.92802 11.1157 6.21483 11.8714C6.50165 12.6272 6.94209 13.3144 7.50803 13.8891C8.09171 14.4373 8.77801 14.8632 9.52698 15.1418C10.276 15.4204 11.0726 15.5461 11.8704 15.5117C13.0091 15.5869 14.146 15.3403 15.1527 14.7997C16.1595 14.2592 16.996 13.4462 17.5678 12.4527ZM35.361 18.9032C33.3074 18.9356 31.2705 18.5276 29.3858 17.7062C28.3766 17.2882 27.4362 16.7187 26.5966 16.0171C25.7058 15.1843 25.0021 14.1697 24.5325 13.0412C24.0628 11.9127 23.8381 10.6964 23.8734 9.47344C23.8379 8.21867 24.0791 6.97156 24.5797 5.82174C25.0802 4.67192 25.8277 3.64794 26.7685 2.82339C27.6248 2.13167 28.5839 1.57964 29.6106 1.18748C31.4311 0.425396 33.3896 0.0539323 35.361 0.0968625C37.4077 0.0530059 39.4416 0.433287 41.3361 1.21407C42.3656 1.6002 43.3255 2.15278 44.1782 2.84999C45.0599 3.69745 45.7643 4.7137 46.25 5.83901C46.7357 6.96432 46.9929 8.17598 47.0064 9.40274C47.02 10.6295 46.7896 11.8466 46.3289 12.9825C45.8681 14.1184 45.1863 15.1501 44.3235 16.0171C43.5052 16.7211 42.5818 17.2912 41.5872 17.7062C39.6189 18.5425 37.497 18.9504 35.361 18.9032ZM35.361 3.35538C31.5142 3.35538 29.3065 5.68292 29.3065 9.50005C29.261 10.3153 29.3843 11.1311 29.6688 11.8958C29.9533 12.6606 30.3926 13.3574 30.9589 13.9423C32.1711 15.0154 33.7476 15.5774 35.361 15.5117C39.102 15.5117 41.5872 13.4103 41.5872 9.50005C41.5872 5.58982 39.3003 3.35538 35.361 3.35538ZM68.7395 18.3845H64.2714L58.8251 12.4394C56.6968 10.1251 55.1898 8.44932 54.357 7.31881C54.4363 8.19662 54.4628 9.97885 54.4628 12.8251V18.3845H49.4658V0.695363H53.7092L59.7901 7.34542C61.9448 9.68624 63.3064 11.2291 63.8484 11.9606C63.7691 10.697 63.7294 8.67544 63.7294 5.88242V0.748575H68.7923L68.7395 18.3845ZM88.2511 12.4926L93.2479 13.7295C91.622 17.0412 87.9602 18.9431 82.5271 18.9431C79.7765 18.9904 77.0715 18.2326 74.741 16.7619C73.5716 15.9688 72.6211 14.8904 71.9785 13.6274C71.3358 12.3644 71.0219 10.9581 71.0661 9.53995C71.0059 8.00999 71.3696 6.49331 72.1166 5.15929C72.8636 3.82527 73.9645 2.72643 75.2963 1.98548C77.5208 0.761075 80.018 0.124967 82.5536 0.136761C84.8086 0.0864014 87.0443 0.564509 89.0839 1.53328C90.7762 2.23025 92.1772 3.49414 93.0497 5.11101L88.066 6.56072C87.5834 5.51168 86.7884 4.63962 85.7913 4.06532C84.7942 3.49103 83.6442 3.24293 82.5007 3.35538C81.6835 3.28563 80.8611 3.39714 80.0915 3.68204C79.3218 3.96695 78.6237 4.41831 78.0464 5.00428C77.469 5.59025 77.0265 6.29655 76.75 7.07335C76.4736 7.85015 76.3699 8.67854 76.4463 9.50005C76.4058 10.3068 76.5316 11.1132 76.816 11.8685C77.1004 12.6239 77.5372 13.3118 78.0987 13.8891C78.8341 14.5147 79.6926 14.977 80.618 15.2454C81.5434 15.5139 82.5146 15.5826 83.4682 15.447C84.4218 15.3113 85.3362 14.9745 86.1513 14.4584C86.9664 13.9424 87.664 13.2589 88.1982 12.4527L88.2511 12.4926ZM113.843 18.3845H95.6142V0.695363H113.183V4.20659H100.677V7.63802H111.623V11.0827H100.677V14.6738H113.896L113.843 18.3845ZM134.175 6.0553C134.175 9.48673 131.888 11.7345 127.565 11.7345H121.259V18.3845H116.183V0.695363H127.459C129.283 0.563447 131.088 1.13399 132.509 2.29137C133.041 2.75136 133.466 3.32337 133.754 3.96691C134.042 4.61045 134.185 5.30979 134.175 6.01541V6.0553ZM128.887 6.0553C128.887 4.63219 127.935 4.10019 125.556 4.10019H121.18V8.19662H125.622C127.856 8.18332 128.9 7.62473 128.9 6.04201L128.887 6.0553ZM154.004 4.35289H147.315V18.3845H142.225V4.3396H135.536V0.655465H154.043L154.004 4.35289ZM161.049 18.3845H155.973V0.695363H161.049V18.3845ZM174.877 18.9431C172.819 18.975 170.778 18.567 168.888 17.7461C167.885 17.3249 166.949 16.7556 166.112 16.057C165.221 15.2173 164.519 14.1952 164.054 13.0595C163.589 11.9238 163.371 10.701 163.416 9.47344C163.38 8.21867 163.621 6.97156 164.122 5.82174C164.622 4.67192 165.37 3.64794 166.311 2.82339C167.167 2.13167 168.126 1.57964 169.153 1.18748C170.973 0.425396 172.932 0.0539323 174.903 0.0968625C176.95 0.0530059 178.984 0.433287 180.878 1.21407C181.908 1.6002 182.868 2.15278 183.72 2.84999C184.602 3.69745 185.306 4.7137 185.792 5.83901C186.278 6.96432 186.535 8.17598 186.549 9.40274C186.562 10.6295 186.332 11.8466 185.871 12.9825C185.41 14.1184 184.728 15.1501 183.866 16.0171C183.047 16.7211 182.124 17.2912 181.129 17.7062C179.153 18.5462 177.022 18.9542 174.877 18.9032V18.9431ZM174.877 3.39528C171.03 3.39528 168.822 5.72282 168.822 9.53995C168.777 10.3552 168.9 11.171 169.185 11.9357C169.469 12.7005 169.908 13.3973 170.475 13.9822C171.687 15.0553 173.263 15.6173 174.877 15.5516C178.618 15.5516 181.103 13.4502 181.103 9.53995C181.103 5.62972 178.816 3.35538 174.877 3.35538V3.39528ZM208.255 18.3845H203.734L198.288 12.4394C196.16 10.1251 194.653 8.44932 193.82 7.31881C193.899 8.19662 193.926 9.97885 193.926 12.8251V18.3845H188.929V0.695363H193.172L199.24 7.34542C201.408 9.68624 202.756 11.2291 203.311 11.9606C203.232 10.697 203.192 8.67544 203.192 5.88242V0.748575H208.255V18.3845ZM241.158 18.3845H235.685L233.927 16.7885C231.999 18.1548 229.673 18.8336 227.317 18.717C225.343 18.7969 223.386 18.3127 221.673 17.3205C220.984 16.9364 220.412 16.3707 220.018 15.6841C219.624 14.9975 219.424 14.216 219.439 13.4236C219.439 11.1094 221.197 9.71284 224.33 8.52913C223.008 7.09271 222.4 6.17502 222.4 4.88491C222.402 4.28756 222.552 3.70013 222.836 3.17546C223.119 2.65078 223.528 2.2053 224.026 1.87907C225.309 1.04071 226.82 0.626845 228.348 0.695363C229.767 0.648984 231.161 1.07439 232.314 1.90568C232.811 2.23381 233.22 2.67937 233.506 3.20338C233.791 3.72739 233.945 4.31386 233.953 4.91149C233.953 6.40111 232.526 8.10353 230.305 9.11433L231.243 9.91235L233.504 11.8409C233.705 11.0994 233.812 10.3351 233.821 9.56653H237.946C237.815 11.2407 237.289 12.8593 236.412 14.2881L241.158 18.3845ZM226.617 4.7918C226.754 5.66214 227.23 6.4419 227.939 6.95972C229.38 6.53412 230.08 5.84251 230.08 4.9381C230.08 4.2598 229.3 3.75439 228.375 3.75439C227.45 3.75439 226.577 4.1667 226.577 4.7519L226.617 4.7918ZM231.429 14.5408L226.762 10.5507C224.872 11.2823 223.92 12.0936 223.92 13.3305C223.92 14.7669 225.374 15.5516 227.661 15.5516C228.978 15.5649 230.271 15.2005 231.389 14.5009L231.429 14.5408ZM271.668 9.31383C271.813 10.4547 271.711 11.6136 271.37 12.7113C271.028 13.8089 270.455 14.8193 269.689 15.6732C268.923 16.5271 267.983 17.2044 266.933 17.6586C265.882 18.1128 264.747 18.3332 263.604 18.3047C262.877 18.3047 261.396 18.3845 259.136 18.3845H251.945V0.695363H260.643C262.751 0.587699 264.858 0.90421 266.843 1.62637C268.408 2.14667 269.745 3.19777 270.625 4.59998C271.505 6.00218 271.874 7.66841 271.668 9.31383ZM266.38 9.31383C266.38 6.2016 264.9 4.5391 261.939 4.2598C261.344 4.2598 260.683 4.18001 260.008 4.18001H256.968V14.6605H260.088C261.692 14.8339 263.312 14.5384 264.754 13.8093C265.944 13.0645 266.393 11.6414 266.393 9.30053L266.38 9.31383ZM292.184 18.3579H273.942V0.668757H291.523V4.18001H279.018V7.61142H289.963V11.0562H279.018V14.6472H292.237L292.184 18.3579ZM313.269 13.0645C313.269 16.5225 310.281 18.85 304.015 18.85C298.199 18.85 294.762 17.3604 293.625 14.3413L299.177 13.4103C299.54 14.049 300.102 14.5493 300.777 14.8334C301.766 15.3084 302.853 15.5409 303.949 15.5117C305.02 15.5363 306.085 15.3464 307.082 14.9531C308.021 14.5807 308.497 14.0487 308.497 13.3571C308.497 12.4261 307.584 11.801 305.773 11.4951L300.301 10.5774C298.847 10.4426 297.446 9.9592 296.216 9.16755C295.617 8.70387 295.144 8.0943 294.844 7.39625C294.543 6.69821 294.424 5.93466 294.497 5.17751C294.475 4.37769 294.688 3.589 295.109 2.91009C295.53 2.23117 296.14 1.69214 296.864 1.36037C298.793 0.390952 300.936 -0.0668448 303.09 0.0303579C305.508 -0.127177 307.926 0.330212 310.123 1.36037C311.372 2.00641 312.321 3.11863 312.766 4.4593L307.598 5.1243C307.148 4.4362 306.52 3.88446 305.781 3.52829C305.043 3.17213 304.222 3.02498 303.407 3.10268C301.094 3.10268 299.336 3.86079 299.336 5.0445C299.336 5.90901 300.036 6.45432 301.464 6.69372L308.206 7.79762C311.581 8.42715 313.269 10.1828 313.269 13.0645ZM320.724 18.3845H315.648V0.695363H320.724V18.3845ZM345.193 4.712L340.223 5.77601C339.506 4.98357 338.622 4.36131 337.637 3.95419C336.652 3.54707 335.589 3.36525 334.525 3.42189C332.929 3.36581 331.373 3.92749 330.176 4.99129C329.586 5.58326 329.128 6.29543 328.834 7.07997C328.54 7.8645 328.416 8.70326 328.471 9.53995C328.428 10.3532 328.555 11.1666 328.844 11.9273C329.133 12.6879 329.578 13.379 330.15 13.9556C331.308 15.0327 332.843 15.6062 334.419 15.5516C335.974 15.594 337.5 15.1272 338.769 14.2216C339.245 13.9311 339.656 13.5449 339.976 13.0872C340.297 12.6295 340.52 12.1101 340.633 11.5615V11.4419H335.503V8.38282H345.167V18.3845H340.725V16.3363C339.921 17.2071 338.941 17.895 337.852 18.3537C336.762 18.8125 335.587 19.0316 334.406 18.9963C331.721 19.0372 329.08 18.3083 326.792 16.8949C325.609 16.0965 324.65 15.0056 324.006 13.7271C323.363 12.4485 323.057 11.025 323.117 9.59314C323.117 2.82338 329.277 0.189973 334.552 0.189973C337.066 0.0992024 339.562 0.648147 341.809 1.78598C343.132 2.48958 344.287 3.47441 345.193 4.6721V4.712ZM367.666 18.3845H363.145L357.738 12.3995C355.597 10.0852 354.09 8.40942 353.27 7.27891C353.349 8.15672 353.376 9.93893 353.376 12.7852V18.3845H348.366V0.695363H352.451L358.518 7.34542C360.686 9.68624 362.034 11.2291 362.59 11.9606C362.51 10.697 362.457 8.67544 362.457 5.88242V0.748575H367.534L367.666 18.3845ZM397.713 6.0553C397.713 9.48673 395.426 11.7345 391.024 11.7345H384.719V18.3845H379.656V0.695363H390.932C392.755 0.568793 394.558 1.13873 395.981 2.29137C396.518 2.74935 396.949 3.32003 397.244 3.96336C397.539 4.60669 397.69 5.30709 397.687 6.01541L397.713 6.0553ZM392.425 6.0553C392.425 4.63219 391.46 4.10019 389.081 4.10019H384.705V8.19662H389.16C391.355 8.18332 392.412 7.62473 392.412 6.04201L392.425 6.0553ZM418.044 18.3845H412.519L411.091 15.1792H402.684L401.362 18.3845H396.074L404.27 0.695363H409.862L418.044 18.3845ZM409.637 11.5615L408.778 9.53995C407.747 7.06613 407.125 5.4701 406.901 4.7918C406.755 5.2706 406.121 6.85333 405.01 9.53995L404.191 11.5615H409.637ZM438.217 6.08191C438.193 7.33466 437.741 8.54087 436.937 9.49765C436.133 10.4544 435.025 11.1034 433.802 11.3354L438.375 18.3845H432.652L428.461 11.402H424.627V18.3845H419.551V0.695363H430.259C431.012 0.695363 431.806 0.695358 432.691 0.815059C434.168 0.886492 435.572 1.47995 436.657 2.49089C437.154 2.93609 437.551 3.48347 437.82 4.09609C438.089 4.7087 438.224 5.37228 438.217 6.04201V6.08191ZM432.929 5.89571C432.946 5.54323 432.836 5.1965 432.62 4.91835C432.404 4.64021 432.096 4.44905 431.753 4.3795C431.198 4.22271 430.623 4.15538 430.047 4.18001C429.713 4.16255 429.377 4.16255 429.043 4.18001H424.627V7.97052H429.677C431.911 7.90402 432.916 7.50502 432.916 5.85581L432.929 5.89571Z" fill="white"/>
<path d="M354.547 151.002C353.775 151.611 352.419 151.911 350.478 151.911H342.768V140.969H350.655C353.556 140.969 354.985 142.001 354.985 143.81C354.985 144.887 354.213 145.672 352.972 146.034C354.62 146.343 355.726 147.296 355.726 148.549C355.726 149.582 355.34 150.393 354.547 151.002ZM349.362 142.813H345.668V145.31H349.33C351.271 145.31 352.106 144.966 352.106 144.093C352.106 143.219 351.198 142.813 349.372 142.813H349.362ZM349.852 147.067H345.658V150.102H349.633C350.833 150.102 351.667 149.961 352.106 149.679C352.554 149.379 352.773 148.99 352.773 148.505C352.773 147.552 351.793 147.067 349.852 147.067Z" fill="white"/>
<path d="M357.479 151.911V140.969H360.359V150.005H368.33V151.911H357.479Z" fill="white"/>
<path d="M368.236 148.593V146.855H374.131V148.593H368.236Z" fill="white"/>
<path d="M387.35 151.911L382.196 147.226C380.402 145.602 379.327 144.587 378.941 144.163H378.899C378.972 145.011 379.014 146.74 379.014 149.352V151.92H376.166V140.978H378.795L383.97 145.717C385.712 147.314 386.777 148.311 387.183 148.717H387.225C387.152 147.64 387.11 146.078 387.11 144.031V140.987H389.98V151.929H387.361L387.35 151.911Z" fill="white"/>
<path d="M402.406 151.911L397.617 146.458L395.061 148.364V151.911H392.181V140.969H395.061V145.796L401.415 140.969H404.889L399.672 145.019L405.714 151.911H402.385H402.406Z" fill="white"/>
<path d="M407.018 151.911V150.023H410.127V151.911H407.018Z" fill="white"/>
<path d="M415.229 142.813V145.452H423.471V147.296H415.229V151.911H412.349V140.969H424.379V142.813H415.229Z" fill="white"/>
<path d="M437.755 146.264C437.108 146.811 436.294 147.172 435.355 147.323L439.017 151.902H435.71L432.288 147.384H428.928V151.902H426.048V140.96H433.926C435.334 140.96 436.482 141.26 437.379 141.869C438.287 142.46 438.746 143.228 438.746 144.163C438.746 144.993 438.412 145.699 437.765 146.255L437.755 146.264ZM433.112 142.778H428.918V145.575H433.133C434.875 145.575 435.741 145.09 435.741 144.102C435.741 143.113 434.813 142.769 433.112 142.769V142.778Z" fill="white"/>
</svg>
